<svg xmlns="http://www.w3.org/2000/svg" width="598" height="48" viewBox="0 0 598 48" role="img" aria-label="ls ~/projects --more # more projects"><title>ls ~/projects --more # more projects</title><rect x="0.5" y="0.5" width="596" height="47" rx="10" fill="#0D1117" stroke="#30363D"/><circle cx="24" cy="24.0" r="6.5" fill="#FF5F56"/><circle cx="44" cy="24.0" r="6.5" fill="#FFBD2E"/><circle cx="64" cy="24.0" r="6.5" fill="#27C93F"/><path fill="#7EE787" d="M92.92 26.4Q92.92 27.09 92.8 27.599999999999998Q92.92 28.08 92.92 28.799999999999997Q92.92 29.49 92.8 30.0H91.6Q91.72 30.479999999999997 91.72 31.2Q91.72 31.889999999999997 91.6 32.4H88.9Q89.02 32.879999999999995 89.02 33.6Q89.02 34.29 88.9 34.8H87.1Q86.98 34.29 86.98 33.6Q86.98 32.879999999999995 87.1 32.4H84.4Q84.28 31.889999999999997 84.28 31.2Q84.28 30.479999999999997 84.4 30.0H83.2Q83.08 29.49 83.08 28.799999999999997Q83.08 28.08 83.2 27.599999999999998H85.6Q85.72 28.08 85.72 28.799999999999997Q85.72 29.49 85.6 30.0H87.1Q86.98 29.49 86.98 28.799999999999997Q86.98 28.08 87.1 27.599999999999998Q86.98 27.09 86.98 26.4Q86.98 25.68 87.1 25.2H84.4Q84.28 24.689999999999998 84.28 24.0Q84.28 23.28 84.4 22.799999999999997H83.2Q83.08 22.29 83.08 21.6Q83.08 20.88 83.2 20.4Q83.08 19.89 83.08 19.2Q83.08 18.479999999999997 83.2 18.0H84.4Q84.28 17.49 84.28 16.799999999999997Q84.28 16.08 84.4 15.599999999999998H87.1Q86.98 15.09 86.98 14.399999999999999Q86.98 13.68 87.1 13.2H88.9Q89.02 13.68 89.02 14.399999999999999Q89.02 15.09 88.9 15.599999999999998H91.6Q91.72 16.08 91.72 16.799999999999997Q91.72 17.49 91.6 18.0H92.8Q92.92 18.479999999999997 92.92 19.2Q92.92 19.89 92.8 20.4H90.4Q90.28 19.89 90.28 19.2Q90.28 18.479999999999997 90.4 18.0H88.9Q89.02 18.479999999999997 89.02 19.2Q89.02 19.89 88.9 20.4Q89.02 20.88 89.02 21.6Q89.02 22.29 88.9 22.799999999999997H91.6Q91.72 23.28 91.72 24.0Q91.72 24.689999999999998 91.6 25.2H92.8Q92.92 25.68 92.92 26.4ZM87.1 22.799999999999997Q86.98 22.29 86.98 21.6Q86.98 20.88 87.1 20.4Q86.98 19.89 86.98 19.2Q86.98 18.479999999999997 87.1 18.0H85.6Q85.72 18.479999999999997 85.72 19.2Q85.72 19.89 85.6 20.4Q85.72 20.88 85.72 21.6Q85.72 22.29 85.6 22.799999999999997ZM90.28 28.799999999999997Q90.28 28.08 90.4 27.599999999999998Q90.28 27.09 90.28 26.4Q90.28 25.68 90.4 25.2H88.9Q89.02 25.68 89.02 26.4Q89.02 27.09 88.9 27.599999999999998Q89.02 28.08 89.02 28.799999999999997Q89.02 29.49 88.9 30.0H90.4Q90.28 29.49 90.28 28.799999999999997Z"/><path fill="#79C0FF" d="M115.72 31.2Q115.72 31.889999999999997 115.6 32.4H108.4Q108.28 31.889999999999997 108.28 31.2Q108.28 30.479999999999997 108.4 30.0H110.8Q110.68 29.49 110.68 28.799999999999997Q110.68 28.08 110.8 27.599999999999998Q110.68 27.09 110.68 26.4Q110.68 25.68 110.8 25.2Q110.68 24.689999999999998 110.68 24.0Q110.68 23.28 110.8 22.799999999999997Q110.68 22.29 110.68 21.6Q110.68 20.88 110.8 20.4Q110.68 19.89 110.68 19.2Q110.68 18.479999999999997 110.8 18.0H109.0Q108.88 17.49 108.88 16.799999999999997Q108.88 16.08 109.0 15.599999999999998H113.2Q113.32 16.08 113.32 16.799999999999997Q113.32 17.49 113.2 18.0Q113.32 18.479999999999997 113.32 19.2Q113.32 19.89 113.2 20.4Q113.32 20.88 113.32 21.6Q113.32 22.29 113.2 22.799999999999997Q113.32 23.28 113.32 24.0Q113.32 24.689999999999998 113.2 25.2Q113.32 25.68 113.32 26.4Q113.32 27.09 113.2 27.599999999999998Q113.32 28.08 113.32 28.799999999999997Q113.32 29.49 113.2 30.0H115.6Q115.72 30.479999999999997 115.72 31.2Z M128.2 30.0H127.0Q127.12 30.479999999999997 127.12 31.2Q127.12 31.889999999999997 127.0 32.4H120.4Q120.28 31.889999999999997 120.28 31.2Q120.28 30.479999999999997 120.4 30.0H125.8Q125.68 29.49 125.68 28.799999999999997Q125.68 28.08 125.8 27.599999999999998H121.0Q120.88 27.09 120.88 26.4Q120.88 25.68 121.0 25.2H119.8Q119.68 24.689999999999998 119.68 24.0Q119.68 23.28 119.8 22.799999999999997H121.0Q120.88 22.29 120.88 21.6Q120.88 20.88 121.0 20.4H127.6Q127.72 20.88 127.72 21.6Q127.72 22.29 127.6 22.799999999999997H122.2Q122.32 23.28 122.32 24.0Q122.32 24.689999999999998 122.2 25.2H127.0Q127.12 25.68 127.12 26.4Q127.12 27.09 127.0 27.599999999999998H128.2Q128.32 28.08 128.32 28.799999999999997Q128.32 29.49 128.2 30.0Z"/><path fill="#D2A8FF" d="M152.8 20.4Q152.92 20.88 152.92 21.6Q152.92 22.29 152.8 22.799999999999997H151.9Q152.02 23.28 152.02 24.0Q152.02 24.689999999999998 151.9 25.2H151.0Q151.12 25.68 151.12 26.4Q151.12 27.09 151.0 27.599999999999998H148.0Q147.88 27.09 147.88 26.4Q147.88 25.68 148.0 25.2H147.1Q146.98 24.689999999999998 146.98 24.0Q146.98 23.28 147.1 22.799999999999997H145.6Q145.72 23.28 145.72 24.0Q145.72 24.689999999999998 145.6 25.2H145.0Q145.12 25.68 145.12 26.4Q145.12 27.09 145.0 27.599999999999998H143.2Q143.08 27.09 143.08 26.4Q143.08 25.68 143.2 25.2Q143.08 24.689999999999998 143.08 24.0Q143.08 23.28 143.2 22.799999999999997H144.1Q143.98 22.29 143.98 21.6Q143.98 20.88 144.1 20.4H145.0Q144.88 19.89 144.88 19.2Q144.88 18.479999999999997 145.0 18.0H148.0Q148.12 18.479999999999997 148.12 19.2Q148.12 19.89 148.0 20.4H148.9Q149.02 20.88 149.02 21.6Q149.02 22.29 148.9 22.799999999999997H150.4Q150.28 22.29 150.28 21.6Q150.28 20.88 150.4 20.4H151.0Q150.88 19.89 150.88 19.2Q150.88 18.479999999999997 151.0 18.0H152.8Q152.92 18.479999999999997 152.92 19.2Q152.92 19.89 152.8 20.4Z M164.8 15.599999999999998H163.9Q164.02 16.08 164.02 16.799999999999997Q164.02 17.49 163.9 18.0H163.0Q163.12 18.479999999999997 163.12 19.2Q163.12 19.89 163.0 20.4H162.1Q162.22 20.88 162.22 21.6Q162.22 22.29 162.1 22.799999999999997H161.2Q161.32 23.28 161.32 24.0Q161.32 24.689999999999998 161.2 25.2H160.3Q160.42 25.68 160.42 26.4Q160.42 27.09 160.3 27.599999999999998H159.4Q159.52 28.08 159.52 28.799999999999997Q159.52 29.49 159.4 30.0H158.5Q158.62 30.479999999999997 158.62 31.2Q158.62 31.889999999999997 158.5 32.4H157.6Q157.72 32.879999999999995 157.72 33.6Q157.72 34.29 157.6 34.8H155.2Q155.08 34.29 155.08 33.6Q155.08 32.879999999999995 155.2 32.4H156.1Q155.98 31.889999999999997 155.98 31.2Q155.98 30.479999999999997 156.1 30.0H157.0Q156.88 29.49 156.88 28.799999999999997Q156.88 28.08 157.0 27.599999999999998H157.9Q157.78 27.09 157.78 26.4Q157.78 25.68 157.9 25.2H158.8Q158.68 24.689999999999998 158.68 24.0Q158.68 23.28 158.8 22.799999999999997H159.7Q159.58 22.29 159.58 21.6Q159.58 20.88 159.7 20.4H160.6Q160.48 19.89 160.48 19.2Q160.48 18.479999999999997 160.6 18.0H161.5Q161.38 17.49 161.38 16.799999999999997Q161.38 16.08 161.5 15.599999999999998H162.4Q162.28 15.09 162.28 14.399999999999999Q162.28 13.68 162.4 13.2H164.8Q164.92 13.68 164.92 14.399999999999999Q164.92 15.09 164.8 15.599999999999998Z M176.8 27.599999999999998H175.6Q175.72 28.08 175.72 28.799999999999997Q175.72 29.49 175.6 30.0H174.4Q174.52 30.479999999999997 174.52 31.2Q174.52 31.889999999999997 174.4 32.4H169.6Q169.72 32.879999999999995 169.72 33.6Q169.72 34.29 169.6 34.8Q169.72 35.28 169.72 36.0Q169.72 36.69 169.6 37.199999999999996H167.2Q167.08 36.69 167.08 36.0Q167.08 35.28 167.2 34.8Q167.08 34.29 167.08 33.6Q167.08 32.879999999999995 167.2 32.4Q167.08 31.889999999999997 167.08 31.2Q167.08 30.479999999999997 167.2 30.0Q167.08 29.49 167.08 28.799999999999997Q167.08 28.08 167.2 27.599999999999998Q167.08 27.09 167.08 26.4Q167.08 25.68 167.2 25.2Q167.08 24.689999999999998 167.08 24.0Q167.08 23.28 167.2 22.799999999999997Q167.08 22.29 167.08 21.6Q167.08 20.88 167.2 20.4H169.6Q169.72 20.88 169.72 21.6Q169.72 22.29 169.6 22.799999999999997H170.8Q170.92 23.28 170.92 24.0Q170.92 24.689999999999998 170.8 25.2H169.6Q169.72 25.68 169.72 26.4Q169.72 27.09 169.6 27.599999999999998Q169.72 28.08 169.72 28.799999999999997Q169.72 29.49 169.6 30.0H173.2Q173.08 29.49 173.08 28.799999999999997Q173.08 28.08 173.2 27.599999999999998H174.4Q174.28 27.09 174.28 26.4Q174.28 25.68 174.4 25.2H173.2Q173.08 24.689999999999998 173.08 24.0Q173.08 23.28 173.2 22.799999999999997H170.8Q170.68 22.29 170.68 21.6Q170.68 20.88 170.8 20.4H174.4Q174.52 20.88 174.52 21.6Q174.52 22.29 174.4 22.799999999999997H175.6Q175.72 23.28 175.72 24.0Q175.72 24.689999999999998 175.6 25.2H176.8Q176.92 25.68 176.92 26.4Q176.92 27.09 176.8 27.599999999999998Z M188.92 24.0Q188.92 24.689999999999998 188.8 25.2H186.4Q186.28 24.689999999999998 186.28 24.0Q186.28 23.28 186.4 22.799999999999997H184.3Q184.42 23.28 184.42 24.0Q184.42 24.689999999999998 184.3 25.2H183.4Q183.52 25.68 183.52 26.4Q183.52 27.09 183.4 27.599999999999998Q183.52 28.08 183.52 28.799999999999997Q183.52 29.49 183.4 30.0H185.2Q185.32 30.479999999999997 185.32 31.2Q185.32 31.889999999999997 185.2 32.4H179.2Q179.08 31.889999999999997 179.08 31.2Q179.08 30.479999999999997 179.2 30.0H181.0Q180.88 29.49 180.88 28.799999999999997Q180.88 28.08 181.0 27.599999999999998Q180.88 27.09 180.88 26.4Q180.88 25.68 181.0 25.2Q180.88 24.689999999999998 180.88 24.0Q180.88 23.28 181.0 22.799999999999997H179.2Q179.08 22.29 179.08 21.6Q179.08 20.88 179.2 20.4H182.2Q182.32 20.88 182.32 21.6Q182.32 22.29 182.2 22.799999999999997H183.4Q183.28 22.29 183.28 21.6Q183.28 20.88 183.4 20.4H187.9Q188.02 20.88 188.02 21.6Q188.02 22.29 187.9 22.799999999999997H188.8Q188.92 23.28 188.92 24.0Z M200.8 27.599999999999998H199.9Q200.02 28.08 200.02 28.799999999999997Q200.02 29.49 199.9 30.0H198.4Q198.52 30.479999999999997 198.52 31.2Q198.52 31.889999999999997 198.4 32.4H193.6Q193.48 31.889999999999997 193.48 31.2Q193.48 30.479999999999997 193.6 30.0H192.1Q191.98 29.49 191.98 28.799999999999997Q191.98 28.08 192.1 27.599999999999998H191.2Q191.08 27.09 191.08 26.4Q191.08 25.68 191.2 25.2H192.1Q191.98 24.689999999999998 191.98 24.0Q191.98 23.28 192.1 22.799999999999997H193.6Q193.48 22.29 193.48 21.6Q193.48 20.88 193.6 20.4H198.4Q198.52 20.88 198.52 21.6Q198.52 22.29 198.4 22.799999999999997H199.9Q200.02 23.28 200.02 24.0Q200.02 24.689999999999998 199.9 25.2H200.8Q200.92 25.68 200.92 26.4Q200.92 27.09 200.8 27.599999999999998ZM198.4 27.599999999999998Q198.28 27.09 198.28 26.4Q198.28 25.68 198.4 25.2H197.5Q197.38 24.689999999999998 197.38 24.0Q197.38 23.28 197.5 22.799999999999997H194.5Q194.62 23.28 194.62 24.0Q194.62 24.689999999999998 194.5 25.2H193.6Q193.72 25.68 193.72 26.4Q193.72 27.09 193.6 27.599999999999998H194.5Q194.62 28.08 194.62 28.799999999999997Q194.62 29.49 194.5 30.0H197.5Q197.38 29.49 197.38 28.799999999999997Q197.38 28.08 197.5 27.599999999999998Z M208.0 18.0Q207.88 17.49 207.88 16.799999999999997Q207.88 16.08 208.0 15.599999999999998H210.4Q210.52 16.08 210.52 16.799999999999997Q210.52 17.49 210.4 18.0ZM210.52 21.6Q210.52 22.29 210.4 22.799999999999997Q210.52 23.28 210.52 24.0Q210.52 24.689999999999998 210.4 25.2Q210.52 25.68 210.52 26.4Q210.52 27.09 210.4 27.599999999999998Q210.52 28.08 210.52 28.799999999999997Q210.52 29.49 210.4 30.0Q210.52 30.479999999999997 210.52 31.2Q210.52 31.889999999999997 210.4 32.4H209.2Q209.32 32.879999999999995 209.32 33.6Q209.32 34.29 209.2 34.8H208.0Q208.12 35.28 208.12 36.0Q208.12 36.69 208.0 37.199999999999996H204.4Q204.28 36.69 204.28 36.0Q204.28 35.28 204.4 34.8H206.8Q206.68 34.29 206.68 33.6Q206.68 32.879999999999995 206.8 32.4H208.0Q207.88 31.889999999999997 207.88 31.2Q207.88 30.479999999999997 208.0 30.0Q207.88 29.49 207.88 28.799999999999997Q207.88 28.08 208.0 27.599999999999998Q207.88 27.09 207.88 26.4Q207.88 25.68 208.0 25.2Q207.88 24.689999999999998 207.88 24.0Q207.88 23.28 208.0 22.799999999999997H205.6Q205.48 22.29 205.48 21.6Q205.48 20.88 205.6 20.4H210.4Q210.52 20.88 210.52 21.6Z M224.8 25.2Q224.92 25.68 224.92 26.4Q224.92 27.09 224.8 27.599999999999998H218.5Q218.62 28.08 218.62 28.799999999999997Q218.62 29.49 218.5 30.0H223.6Q223.72 30.479999999999997 223.72 31.2Q223.72 31.889999999999997 223.6 32.4H217.6Q217.48 31.889999999999997 217.48 31.2Q217.48 30.479999999999997 217.6 30.0H216.1Q215.98 29.49 215.98 28.799999999999997Q215.98 28.08 216.1 27.599999999999998H215.2Q215.08 27.09 215.08 26.4Q215.08 25.68 215.2 25.2H216.1Q215.98 24.689999999999998 215.98 24.0Q215.98 23.28 216.1 22.799999999999997H217.6Q217.48 22.29 217.48 21.6Q217.48 20.88 217.6 20.4H223.6Q223.72 20.88 223.72 21.6Q223.72 22.29 223.6 22.799999999999997H224.8Q224.92 23.28 224.92 24.0Q224.92 24.689999999999998 224.8 25.2ZM222.28 24.0Q222.28 23.28 222.4 22.799999999999997H218.5Q218.62 23.28 218.62 24.0Q218.62 24.689999999999998 218.5 25.2H222.4Q222.28 24.689999999999998 222.28 24.0Z M236.8 27.599999999999998Q236.92 28.08 236.92 28.799999999999997Q236.92 29.49 236.8 30.0H235.6Q235.72 30.479999999999997 235.72 31.2Q235.72 31.889999999999997 235.6 32.4H229.6Q229.48 31.889999999999997 229.48 31.2Q229.48 30.479999999999997 229.6 30.0H228.4Q228.28 29.49 228.28 28.799999999999997Q228.28 28.08 228.4 27.599999999999998H227.2Q227.08 27.09 227.08 26.4Q227.08 25.68 227.2 25.2H228.4Q228.28 24.689999999999998 228.28 24.0Q228.28 23.28 228.4 22.799999999999997H229.6Q229.48 22.29 229.48 21.6Q229.48 20.88 229.6 20.4H235.6Q235.72 20.88 235.72 21.6Q235.72 22.29 235.6 22.799999999999997H236.8Q236.92 23.28 236.92 24.0Q236.92 24.689999999999998 236.8 25.2H234.4Q234.28 24.689999999999998 234.28 24.0Q234.28 23.28 234.4 22.799999999999997H230.8Q230.92 23.28 230.92 24.0Q230.92 24.689999999999998 230.8 25.2H229.6Q229.72 25.68 229.72 26.4Q229.72 27.09 229.6 27.599999999999998H230.8Q230.92 28.08 230.92 28.799999999999997Q230.92 29.49 230.8 30.0H234.4Q234.28 29.49 234.28 28.799999999999997Q234.28 28.08 234.4 27.599999999999998Z M247.6 30.0Q247.72 30.479999999999997 247.72 31.2Q247.72 31.889999999999997 247.6 32.4H242.8Q242.68 31.889999999999997 242.68 31.2Q242.68 30.479999999999997 242.8 30.0H241.6Q241.48 29.49 241.48 28.799999999999997Q241.48 28.08 241.6 27.599999999999998Q241.48 27.09 241.48 26.4Q241.48 25.68 241.6 25.2Q241.48 24.689999999999998 241.48 24.0Q241.48 23.28 241.6 22.799999999999997H239.2Q239.08 22.29 239.08 21.6Q239.08 20.88 239.2 20.4H241.6Q241.48 19.89 241.48 19.2Q241.48 18.479999999999997 241.6 18.0Q241.48 17.49 241.48 16.799999999999997Q241.48 16.08 241.6 15.599999999999998H244.0Q244.12 16.08 244.12 16.799999999999997Q244.12 17.49 244.0 18.0Q244.12 18.479999999999997 244.12 19.2Q244.12 19.89 244.0 20.4H247.6Q247.72 20.88 247.72 21.6Q247.72 22.29 247.6 22.799999999999997H244.0Q244.12 23.28 244.12 24.0Q244.12 24.689999999999998 244.0 25.2Q244.12 25.68 244.12 26.4Q244.12 27.09 244.0 27.599999999999998Q244.12 28.08 244.12 28.799999999999997Q244.12 29.49 244.0 30.0Z M260.2 30.0H259.0Q259.12 30.479999999999997 259.12 31.2Q259.12 31.889999999999997 259.0 32.4H252.4Q252.28 31.889999999999997 252.28 31.2Q252.28 30.479999999999997 252.4 30.0H257.8Q257.68 29.49 257.68 28.799999999999997Q257.68 28.08 257.8 27.599999999999998H253.0Q252.88 27.09 252.88 26.4Q252.88 25.68 253.0 25.2H251.8Q251.68 24.689999999999998 251.68 24.0Q251.68 23.28 251.8 22.799999999999997H253.0Q252.88 22.29 252.88 21.6Q252.88 20.88 253.0 20.4H259.6Q259.72 20.88 259.72 21.6Q259.72 22.29 259.6 22.799999999999997H254.2Q254.32 23.28 254.32 24.0Q254.32 24.689999999999998 254.2 25.2H259.0Q259.12 25.68 259.12 26.4Q259.12 27.09 259.0 27.599999999999998H260.2Q260.32 28.08 260.32 28.799999999999997Q260.32 29.49 260.2 30.0Z"/><path fill="#FFA657" d="M283.0 22.799999999999997Q283.12 23.28 283.12 24.0Q283.12 24.689999999999998 283.0 25.2H277.0Q276.88 24.689999999999998 276.88 24.0Q276.88 23.28 277.0 22.799999999999997Z M295.0 22.799999999999997Q295.12 23.28 295.12 24.0Q295.12 24.689999999999998 295.0 25.2H289.0Q288.88 24.689999999999998 288.88 24.0Q288.88 23.28 289.0 22.799999999999997Z M300.7 22.799999999999997H301.6Q301.72 23.28 301.72 24.0Q301.72 24.689999999999998 301.6 25.2Q301.72 25.68 301.72 26.4Q301.72 27.09 301.6 27.599999999999998Q301.72 28.08 301.72 28.799999999999997Q301.72 29.49 301.6 30.0Q301.72 30.479999999999997 301.72 31.2Q301.72 31.889999999999997 301.6 32.4H299.2Q299.08 31.889999999999997 299.08 31.2Q299.08 30.479999999999997 299.2 30.0Q299.08 29.49 299.08 28.799999999999997Q299.08 28.08 299.2 27.599999999999998Q299.08 27.09 299.08 26.4Q299.08 25.68 299.2 25.2Q299.08 24.689999999999998 299.08 24.0Q299.08 23.28 299.2 22.799999999999997Q299.08 22.29 299.08 21.6Q299.08 20.88 299.2 20.4H300.7Q300.82 20.88 300.82 21.6Q300.82 22.29 300.7 22.799999999999997ZM304.0 22.799999999999997H304.9Q305.02 23.28 305.02 24.0Q305.02 24.689999999999998 304.9 25.2Q305.02 25.68 305.02 26.4Q305.02 27.09 304.9 27.599999999999998Q305.02 28.08 305.02 28.799999999999997Q305.02 29.49 304.9 30.0Q305.02 30.479999999999997 305.02 31.2Q305.02 31.889999999999997 304.9 32.4H303.1Q302.98 31.889999999999997 302.98 31.2Q302.98 30.479999999999997 303.1 30.0Q302.98 29.49 302.98 28.799999999999997Q302.98 28.08 303.1 27.599999999999998Q302.98 27.09 302.98 26.4Q302.98 25.68 303.1 25.2Q302.98 24.689999999999998 302.98 24.0Q302.98 23.28 303.1 22.799999999999997H301.6Q301.48 22.29 301.48 21.6Q301.48 20.88 301.6 20.4H304.0Q304.12 20.88 304.12 21.6Q304.12 22.29 304.0 22.799999999999997ZM308.92 26.4Q308.92 27.09 308.8 27.599999999999998Q308.92 28.08 308.92 28.799999999999997Q308.92 29.49 308.8 30.0Q308.92 30.479999999999997 308.92 31.2Q308.92 31.889999999999997 308.8 32.4H306.4Q306.28 31.889999999999997 306.28 31.2Q306.28 30.479999999999997 306.4 30.0Q306.28 29.49 306.28 28.799999999999997Q306.28 28.08 306.4 27.599999999999998Q306.28 27.09 306.28 26.4Q306.28 25.68 306.4 25.2Q306.28 24.689999999999998 306.28 24.0Q306.28 23.28 306.4 22.799999999999997H304.9Q304.78 22.29 304.78 21.6Q304.78 20.88 304.9 20.4H307.6Q307.72 20.88 307.72 21.6Q307.72 22.29 307.6 22.799999999999997H308.8Q308.92 23.28 308.92 24.0Q308.92 24.689999999999998 308.8 25.2Q308.92 25.68 308.92 26.4Z M320.8 27.599999999999998H319.9Q320.02 28.08 320.02 28.799999999999997Q320.02 29.49 319.9 30.0H318.4Q318.52 30.479999999999997 318.52 31.2Q318.52 31.889999999999997 318.4 32.4H313.6Q313.48 31.889999999999997 313.48 31.2Q313.48 30.479999999999997 313.6 30.0H312.1Q311.98 29.49 311.98 28.799999999999997Q311.98 28.08 312.1 27.599999999999998H311.2Q311.08 27.09 311.08 26.4Q311.08 25.68 311.2 25.2H312.1Q311.98 24.689999999999998 311.98 24.0Q311.98 23.28 312.1 22.799999999999997H313.6Q313.48 22.29 313.48 21.6Q313.48 20.88 313.6 20.4H318.4Q318.52 20.88 318.52 21.6Q318.52 22.29 318.4 22.799999999999997H319.9Q320.02 23.28 320.02 24.0Q320.02 24.689999999999998 319.9 25.2H320.8Q320.92 25.68 320.92 26.4Q320.92 27.09 320.8 27.599999999999998ZM318.4 27.599999999999998Q318.28 27.09 318.28 26.4Q318.28 25.68 318.4 25.2H317.5Q317.38 24.689999999999998 317.38 24.0Q317.38 23.28 317.5 22.799999999999997H314.5Q314.62 23.28 314.62 24.0Q314.62 24.689999999999998 314.5 25.2H313.6Q313.72 25.68 313.72 26.4Q313.72 27.09 313.6 27.599999999999998H314.5Q314.62 28.08 314.62 28.799999999999997Q314.62 29.49 314.5 30.0H317.5Q317.38 29.49 317.38 28.799999999999997Q317.38 28.08 317.5 27.599999999999998Z M332.92 24.0Q332.92 24.689999999999998 332.8 25.2H330.4Q330.28 24.689999999999998 330.28 24.0Q330.28 23.28 330.4 22.799999999999997H328.3Q328.42 23.28 328.42 24.0Q328.42 24.689999999999998 328.3 25.2H327.4Q327.52 25.68 327.52 26.4Q327.52 27.09 327.4 27.599999999999998Q327.52 28.08 327.52 28.799999999999997Q327.52 29.49 327.4 30.0H329.2Q329.32 30.479999999999997 329.32 31.2Q329.32 31.889999999999997 329.2 32.4H323.2Q323.08 31.889999999999997 323.08 31.2Q323.08 30.479999999999997 323.2 30.0H325.0Q324.88 29.49 324.88 28.799999999999997Q324.88 28.08 325.0 27.599999999999998Q324.88 27.09 324.88 26.4Q324.88 25.68 325.0 25.2Q324.88 24.689999999999998 324.88 24.0Q324.88 23.28 325.0 22.799999999999997H323.2Q323.08 22.29 323.08 21.6Q323.08 20.88 323.2 20.4H326.2Q326.32 20.88 326.32 21.6Q326.32 22.29 326.2 22.799999999999997H327.4Q327.28 22.29 327.28 21.6Q327.28 20.88 327.4 20.4H331.9Q332.02 20.88 332.02 21.6Q332.02 22.29 331.9 22.799999999999997H332.8Q332.92 23.28 332.92 24.0Z M344.8 25.2Q344.92 25.68 344.92 26.4Q344.92 27.09 344.8 27.599999999999998H338.5Q338.62 28.08 338.62 28.799999999999997Q338.62 29.49 338.5 30.0H343.6Q343.72 30.479999999999997 343.72 31.2Q343.72 31.889999999999997 343.6 32.4H337.6Q337.48 31.889999999999997 337.48 31.2Q337.48 30.479999999999997 337.6 30.0H336.1Q335.98 29.49 335.98 28.799999999999997Q335.98 28.08 336.1 27.599999999999998H335.2Q335.08 27.09 335.08 26.4Q335.08 25.68 335.2 25.2H336.1Q335.98 24.689999999999998 335.98 24.0Q335.98 23.28 336.1 22.799999999999997H337.6Q337.48 22.29 337.48 21.6Q337.48 20.88 337.6 20.4H343.6Q343.72 20.88 343.72 21.6Q343.72 22.29 343.6 22.799999999999997H344.8Q344.92 23.28 344.92 24.0Q344.92 24.689999999999998 344.8 25.2ZM342.28 24.0Q342.28 23.28 342.4 22.799999999999997H338.5Q338.62 23.28 338.62 24.0Q338.62 24.689999999999998 338.5 25.2H342.4Q342.28 24.689999999999998 342.28 24.0Z"/><path fill="#8B949E" d="M380.8 25.2Q380.92 25.68 380.92 26.4Q380.92 27.09 380.8 27.599999999999998H379.3Q379.42 28.08 379.42 28.799999999999997Q379.42 29.49 379.3 30.0H376.9Q376.78 29.49 376.78 28.799999999999997Q376.78 28.08 376.9 27.599999999999998H375.1Q375.22 28.08 375.22 28.799999999999997Q375.22 29.49 375.1 30.0H372.7Q372.58 29.49 372.58 28.799999999999997Q372.58 28.08 372.7 27.599999999999998H371.2Q371.08 27.09 371.08 26.4Q371.08 25.68 371.2 25.2H372.7Q372.58 24.689999999999998 372.58 24.0Q372.58 23.28 372.7 22.799999999999997Q372.58 22.29 372.58 21.6Q372.58 20.88 372.7 20.4H371.2Q371.08 19.89 371.08 19.2Q371.08 18.479999999999997 371.2 18.0H372.7Q372.58 17.49 372.58 16.799999999999997Q372.58 16.08 372.7 15.599999999999998H375.1Q375.22 16.08 375.22 16.799999999999997Q375.22 17.49 375.1 18.0H376.9Q376.78 17.49 376.78 16.799999999999997Q376.78 16.08 376.9 15.599999999999998H379.3Q379.42 16.08 379.42 16.799999999999997Q379.42 17.49 379.3 18.0H380.8Q380.92 18.479999999999997 380.92 19.2Q380.92 19.89 380.8 20.4H379.3Q379.42 20.88 379.42 21.6Q379.42 22.29 379.3 22.799999999999997Q379.42 23.28 379.42 24.0Q379.42 24.689999999999998 379.3 25.2ZM376.78 24.0Q376.78 23.28 376.9 22.799999999999997Q376.78 22.29 376.78 21.6Q376.78 20.88 376.9 20.4H375.1Q375.22 20.88 375.22 21.6Q375.22 22.29 375.1 22.799999999999997Q375.22 23.28 375.22 24.0Q375.22 24.689999999999998 375.1 25.2H376.9Q376.78 24.689999999999998 376.78 24.0Z M396.7 22.799999999999997H397.6Q397.72 23.28 397.72 24.0Q397.72 24.689999999999998 397.6 25.2Q397.72 25.68 397.72 26.4Q397.72 27.09 397.6 27.599999999999998Q397.72 28.08 397.72 28.799999999999997Q397.72 29.49 397.6 30.0Q397.72 30.479999999999997 397.72 31.2Q397.72 31.889999999999997 397.6 32.4H395.2Q395.08 31.889999999999997 395.08 31.2Q395.08 30.479999999999997 395.2 30.0Q395.08 29.49 395.08 28.799999999999997Q395.08 28.08 395.2 27.599999999999998Q395.08 27.09 395.08 26.4Q395.08 25.68 395.2 25.2Q395.08 24.689999999999998 395.08 24.0Q395.08 23.28 395.2 22.799999999999997Q395.08 22.29 395.08 21.6Q395.08 20.88 395.2 20.4H396.7Q396.82 20.88 396.82 21.6Q396.82 22.29 396.7 22.799999999999997ZM400.0 22.799999999999997H400.9Q401.02 23.28 401.02 24.0Q401.02 24.689999999999998 400.9 25.2Q401.02 25.68 401.02 26.4Q401.02 27.09 400.9 27.599999999999998Q401.02 28.08 401.02 28.799999999999997Q401.02 29.49 400.9 30.0Q401.02 30.479999999999997 401.02 31.2Q401.02 31.889999999999997 400.9 32.4H399.1Q398.98 31.889999999999997 398.98 31.2Q398.98 30.479999999999997 399.1 30.0Q398.98 29.49 398.98 28.799999999999997Q398.98 28.08 399.1 27.599999999999998Q398.98 27.09 398.98 26.4Q398.98 25.68 399.1 25.2Q398.98 24.689999999999998 398.98 24.0Q398.98 23.28 399.1 22.799999999999997H397.6Q397.48 22.29 397.48 21.6Q397.48 20.88 397.6 20.4H400.0Q400.12 20.88 400.12 21.6Q400.12 22.29 400.0 22.799999999999997ZM404.92 26.4Q404.92 27.09 404.8 27.599999999999998Q404.92 28.08 404.92 28.799999999999997Q404.92 29.49 404.8 30.0Q404.92 30.479999999999997 404.92 31.2Q404.92 31.889999999999997 404.8 32.4H402.4Q402.28 31.889999999999997 402.28 31.2Q402.28 30.479999999999997 402.4 30.0Q402.28 29.49 402.28 28.799999999999997Q402.28 28.08 402.4 27.599999999999998Q402.28 27.09 402.28 26.4Q402.28 25.68 402.4 25.2Q402.28 24.689999999999998 402.28 24.0Q402.28 23.28 402.4 22.799999999999997H400.9Q400.78 22.29 400.78 21.6Q400.78 20.88 400.9 20.4H403.6Q403.72 20.88 403.72 21.6Q403.72 22.29 403.6 22.799999999999997H404.8Q404.92 23.28 404.92 24.0Q404.92 24.689999999999998 404.8 25.2Q404.92 25.68 404.92 26.4Z M416.8 27.599999999999998H415.9Q416.02 28.08 416.02 28.799999999999997Q416.02 29.49 415.9 30.0H414.4Q414.52 30.479999999999997 414.52 31.2Q414.52 31.889999999999997 414.4 32.4H409.6Q409.48 31.889999999999997 409.48 31.2Q409.48 30.479999999999997 409.6 30.0H408.1Q407.98 29.49 407.98 28.799999999999997Q407.98 28.08 408.1 27.599999999999998H407.2Q407.08 27.09 407.08 26.4Q407.08 25.68 407.2 25.2H408.1Q407.98 24.689999999999998 407.98 24.0Q407.98 23.28 408.1 22.799999999999997H409.6Q409.48 22.29 409.48 21.6Q409.48 20.88 409.6 20.4H414.4Q414.52 20.88 414.52 21.6Q414.52 22.29 414.4 22.799999999999997H415.9Q416.02 23.28 416.02 24.0Q416.02 24.689999999999998 415.9 25.2H416.8Q416.92 25.68 416.92 26.4Q416.92 27.09 416.8 27.599999999999998ZM414.4 27.599999999999998Q414.28 27.09 414.28 26.4Q414.28 25.68 414.4 25.2H413.5Q413.38 24.689999999999998 413.38 24.0Q413.38 23.28 413.5 22.799999999999997H410.5Q410.62 23.28 410.62 24.0Q410.62 24.689999999999998 410.5 25.2H409.6Q409.72 25.68 409.72 26.4Q409.72 27.09 409.6 27.599999999999998H410.5Q410.62 28.08 410.62 28.799999999999997Q410.62 29.49 410.5 30.0H413.5Q413.38 29.49 413.38 28.799999999999997Q413.38 28.08 413.5 27.599999999999998Z M428.92 24.0Q428.92 24.689999999999998 428.8 25.2H426.4Q426.28 24.689999999999998 426.28 24.0Q426.28 23.28 426.4 22.799999999999997H424.3Q424.42 23.28 424.42 24.0Q424.42 24.689999999999998 424.3 25.2H423.4Q423.52 25.68 423.52 26.4Q423.52 27.09 423.4 27.599999999999998Q423.52 28.08 423.52 28.799999999999997Q423.52 29.49 423.4 30.0H425.2Q425.32 30.479999999999997 425.32 31.2Q425.32 31.889999999999997 425.2 32.4H419.2Q419.08 31.889999999999997 419.08 31.2Q419.08 30.479999999999997 419.2 30.0H421.0Q420.88 29.49 420.88 28.799999999999997Q420.88 28.08 421.0 27.599999999999998Q420.88 27.09 420.88 26.4Q420.88 25.68 421.0 25.2Q420.88 24.689999999999998 420.88 24.0Q420.88 23.28 421.0 22.799999999999997H419.2Q419.08 22.29 419.08 21.6Q419.08 20.88 419.2 20.4H422.2Q422.32 20.88 422.32 21.6Q422.32 22.29 422.2 22.799999999999997H423.4Q423.28 22.29 423.28 21.6Q423.28 20.88 423.4 20.4H427.9Q428.02 20.88 428.02 21.6Q428.02 22.29 427.9 22.799999999999997H428.8Q428.92 23.28 428.92 24.0Z M440.8 25.2Q440.92 25.68 440.92 26.4Q440.92 27.09 440.8 27.599999999999998H434.5Q434.62 28.08 434.62 28.799999999999997Q434.62 29.49 434.5 30.0H439.6Q439.72 30.479999999999997 439.72 31.2Q439.72 31.889999999999997 439.6 32.4H433.6Q433.48 31.889999999999997 433.48 31.2Q433.48 30.479999999999997 433.6 30.0H432.1Q431.98 29.49 431.98 28.799999999999997Q431.98 28.08 432.1 27.599999999999998H431.2Q431.08 27.09 431.08 26.4Q431.08 25.68 431.2 25.2H432.1Q431.98 24.689999999999998 431.98 24.0Q431.98 23.28 432.1 22.799999999999997H433.6Q433.48 22.29 433.48 21.6Q433.48 20.88 433.6 20.4H439.6Q439.72 20.88 439.72 21.6Q439.72 22.29 439.6 22.799999999999997H440.8Q440.92 23.28 440.92 24.0Q440.92 24.689999999999998 440.8 25.2ZM438.28 24.0Q438.28 23.28 438.4 22.799999999999997H434.5Q434.62 23.28 434.62 24.0Q434.62 24.689999999999998 434.5 25.2H438.4Q438.28 24.689999999999998 438.28 24.0Z M464.8 27.599999999999998H463.6Q463.72 28.08 463.72 28.799999999999997Q463.72 29.49 463.6 30.0H462.4Q462.52 30.479999999999997 462.52 31.2Q462.52 31.889999999999997 462.4 32.4H457.6Q457.72 32.879999999999995 457.72 33.6Q457.72 34.29 457.6 34.8Q457.72 35.28 457.72 36.0Q457.72 36.69 457.6 37.199999999999996H455.2Q455.08 36.69 455.08 36.0Q455.08 35.28 455.2 34.8Q455.08 34.29 455.08 33.6Q455.08 32.879999999999995 455.2 32.4Q455.08 31.889999999999997 455.08 31.2Q455.08 30.479999999999997 455.2 30.0Q455.08 29.49 455.08 28.799999999999997Q455.08 28.08 455.2 27.599999999999998Q455.08 27.09 455.08 26.4Q455.08 25.68 455.2 25.2Q455.08 24.689999999999998 455.08 24.0Q455.08 23.28 455.2 22.799999999999997Q455.08 22.29 455.08 21.6Q455.08 20.88 455.2 20.4H457.6Q457.72 20.88 457.72 21.6Q457.72 22.29 457.6 22.799999999999997H458.8Q458.92 23.28 458.92 24.0Q458.92 24.689999999999998 458.8 25.2H457.6Q457.72 25.68 457.72 26.4Q457.72 27.09 457.6 27.599999999999998Q457.72 28.08 457.72 28.799999999999997Q457.72 29.49 457.6 30.0H461.2Q461.08 29.49 461.08 28.799999999999997Q461.08 28.08 461.2 27.599999999999998H462.4Q462.28 27.09 462.28 26.4Q462.28 25.68 462.4 25.2H461.2Q461.08 24.689999999999998 461.08 24.0Q461.08 23.28 461.2 22.799999999999997H458.8Q458.68 22.29 458.68 21.6Q458.68 20.88 458.8 20.4H462.4Q462.52 20.88 462.52 21.6Q462.52 22.29 462.4 22.799999999999997H463.6Q463.72 23.28 463.72 24.0Q463.72 24.689999999999998 463.6 25.2H464.8Q464.92 25.68 464.92 26.4Q464.92 27.09 464.8 27.599999999999998Z M476.92 24.0Q476.92 24.689999999999998 476.8 25.2H474.4Q474.28 24.689999999999998 474.28 24.0Q474.28 23.28 474.4 22.799999999999997H472.3Q472.42 23.28 472.42 24.0Q472.42 24.689999999999998 472.3 25.2H471.4Q471.52 25.68 471.52 26.4Q471.52 27.09 471.4 27.599999999999998Q471.52 28.08 471.52 28.799999999999997Q471.52 29.49 471.4 30.0H473.2Q473.32 30.479999999999997 473.32 31.2Q473.32 31.889999999999997 473.2 32.4H467.2Q467.08 31.889999999999997 467.08 31.2Q467.08 30.479999999999997 467.2 30.0H469.0Q468.88 29.49 468.88 28.799999999999997Q468.88 28.08 469.0 27.599999999999998Q468.88 27.09 468.88 26.4Q468.88 25.68 469.0 25.2Q468.88 24.689999999999998 468.88 24.0Q468.88 23.28 469.0 22.799999999999997H467.2Q467.08 22.29 467.08 21.6Q467.08 20.88 467.2 20.4H470.2Q470.32 20.88 470.32 21.6Q470.32 22.29 470.2 22.799999999999997H471.4Q471.28 22.29 471.28 21.6Q471.28 20.88 471.4 20.4H475.9Q476.02 20.88 476.02 21.6Q476.02 22.29 475.9 22.799999999999997H476.8Q476.92 23.28 476.92 24.0Z M488.8 27.599999999999998H487.9Q488.02 28.08 488.02 28.799999999999997Q488.02 29.49 487.9 30.0H486.4Q486.52 30.479999999999997 486.52 31.2Q486.52 31.889999999999997 486.4 32.4H481.6Q481.48 31.889999999999997 481.48 31.2Q481.48 30.479999999999997 481.6 30.0H480.1Q479.98 29.49 479.98 28.799999999999997Q479.98 28.08 480.1 27.599999999999998H479.2Q479.08 27.09 479.08 26.4Q479.08 25.68 479.2 25.2H480.1Q479.98 24.689999999999998 479.98 24.0Q479.98 23.28 480.1 22.799999999999997H481.6Q481.48 22.29 481.48 21.6Q481.48 20.88 481.6 20.4H486.4Q486.52 20.88 486.52 21.6Q486.52 22.29 486.4 22.799999999999997H487.9Q488.02 23.28 488.02 24.0Q488.02 24.689999999999998 487.9 25.2H488.8Q488.92 25.68 488.92 26.4Q488.92 27.09 488.8 27.599999999999998ZM486.4 27.599999999999998Q486.28 27.09 486.28 26.4Q486.28 25.68 486.4 25.2H485.5Q485.38 24.689999999999998 485.38 24.0Q485.38 23.28 485.5 22.799999999999997H482.5Q482.62 23.28 482.62 24.0Q482.62 24.689999999999998 482.5 25.2H481.6Q481.72 25.68 481.72 26.4Q481.72 27.09 481.6 27.599999999999998H482.5Q482.62 28.08 482.62 28.799999999999997Q482.62 29.49 482.5 30.0H485.5Q485.38 29.49 485.38 28.799999999999997Q485.38 28.08 485.5 27.599999999999998Z M496.0 18.0Q495.88 17.49 495.88 16.799999999999997Q495.88 16.08 496.0 15.599999999999998H498.4Q498.52 16.08 498.52 16.799999999999997Q498.52 17.49 498.4 18.0ZM498.52 21.6Q498.52 22.29 498.4 22.799999999999997Q498.52 23.28 498.52 24.0Q498.52 24.689999999999998 498.4 25.2Q498.52 25.68 498.52 26.4Q498.52 27.09 498.4 27.599999999999998Q498.52 28.08 498.52 28.799999999999997Q498.52 29.49 498.4 30.0Q498.52 30.479999999999997 498.52 31.2Q498.52 31.889999999999997 498.4 32.4H497.2Q497.32 32.879999999999995 497.32 33.6Q497.32 34.29 497.2 34.8H496.0Q496.12 35.28 496.12 36.0Q496.12 36.69 496.0 37.199999999999996H492.4Q492.28 36.69 492.28 36.0Q492.28 35.28 492.4 34.8H494.8Q494.68 34.29 494.68 33.6Q494.68 32.879999999999995 494.8 32.4H496.0Q495.88 31.889999999999997 495.88 31.2Q495.88 30.479999999999997 496.0 30.0Q495.88 29.49 495.88 28.799999999999997Q495.88 28.08 496.0 27.599999999999998Q495.88 27.09 495.88 26.4Q495.88 25.68 496.0 25.2Q495.88 24.689999999999998 495.88 24.0Q495.88 23.28 496.0 22.799999999999997H493.6Q493.48 22.29 493.48 21.6Q493.48 20.88 493.6 20.4H498.4Q498.52 20.88 498.52 21.6Z M512.8 25.2Q512.92 25.68 512.92 26.4Q512.92 27.09 512.8 27.599999999999998H506.5Q506.62 28.08 506.62 28.799999999999997Q506.62 29.49 506.5 30.0H511.6Q511.72 30.479999999999997 511.72 31.2Q511.72 31.889999999999997 511.6 32.4H505.6Q505.48 31.889999999999997 505.48 31.2Q505.48 30.479999999999997 505.6 30.0H504.1Q503.98 29.49 503.98 28.799999999999997Q503.98 28.08 504.1 27.599999999999998H503.2Q503.08 27.09 503.08 26.4Q503.08 25.68 503.2 25.2H504.1Q503.98 24.689999999999998 503.98 24.0Q503.98 23.28 504.1 22.799999999999997H505.6Q505.48 22.29 505.48 21.6Q505.48 20.88 505.6 20.4H511.6Q511.72 20.88 511.72 21.6Q511.72 22.29 511.6 22.799999999999997H512.8Q512.92 23.28 512.92 24.0Q512.92 24.689999999999998 512.8 25.2ZM510.28 24.0Q510.28 23.28 510.4 22.799999999999997H506.5Q506.62 23.28 506.62 24.0Q506.62 24.689999999999998 506.5 25.2H510.4Q510.28 24.689999999999998 510.28 24.0Z M524.8 27.599999999999998Q524.92 28.08 524.92 28.799999999999997Q524.92 29.49 524.8 30.0H523.6Q523.72 30.479999999999997 523.72 31.2Q523.72 31.889999999999997 523.6 32.4H517.6Q517.48 31.889999999999997 517.48 31.2Q517.48 30.479999999999997 517.6 30.0H516.4Q516.28 29.49 516.28 28.799999999999997Q516.28 28.08 516.4 27.599999999999998H515.2Q515.08 27.09 515.08 26.4Q515.08 25.68 515.2 25.2H516.4Q516.28 24.689999999999998 516.28 24.0Q516.28 23.28 516.4 22.799999999999997H517.6Q517.48 22.29 517.48 21.6Q517.48 20.88 517.6 20.4H523.6Q523.72 20.88 523.72 21.6Q523.72 22.29 523.6 22.799999999999997H524.8Q524.92 23.28 524.92 24.0Q524.92 24.689999999999998 524.8 25.2H522.4Q522.28 24.689999999999998 522.28 24.0Q522.28 23.28 522.4 22.799999999999997H518.8Q518.92 23.28 518.92 24.0Q518.92 24.689999999999998 518.8 25.2H517.6Q517.72 25.68 517.72 26.4Q517.72 27.09 517.6 27.599999999999998H518.8Q518.92 28.08 518.92 28.799999999999997Q518.92 29.49 518.8 30.0H522.4Q522.28 29.49 522.28 28.799999999999997Q522.28 28.08 522.4 27.599999999999998Z M535.6 30.0Q535.72 30.479999999999997 535.72 31.2Q535.72 31.889999999999997 535.6 32.4H530.8Q530.68 31.889999999999997 530.68 31.2Q530.68 30.479999999999997 530.8 30.0H529.6Q529.48 29.49 529.48 28.799999999999997Q529.48 28.08 529.6 27.599999999999998Q529.48 27.09 529.48 26.4Q529.48 25.68 529.6 25.2Q529.48 24.689999999999998 529.48 24.0Q529.48 23.28 529.6 22.799999999999997H527.2Q527.08 22.29 527.08 21.6Q527.08 20.88 527.2 20.4H529.6Q529.48 19.89 529.48 19.2Q529.48 18.479999999999997 529.6 18.0Q529.48 17.49 529.48 16.799999999999997Q529.48 16.08 529.6 15.599999999999998H532.0Q532.12 16.08 532.12 16.799999999999997Q532.12 17.49 532.0 18.0Q532.12 18.479999999999997 532.12 19.2Q532.12 19.89 532.0 20.4H535.6Q535.72 20.88 535.72 21.6Q535.72 22.29 535.6 22.799999999999997H532.0Q532.12 23.28 532.12 24.0Q532.12 24.689999999999998 532.0 25.2Q532.12 25.68 532.12 26.4Q532.12 27.09 532.0 27.599999999999998Q532.12 28.08 532.12 28.799999999999997Q532.12 29.49 532.0 30.0Z M548.2 30.0H547.0Q547.12 30.479999999999997 547.12 31.2Q547.12 31.889999999999997 547.0 32.4H540.4Q540.28 31.889999999999997 540.28 31.2Q540.28 30.479999999999997 540.4 30.0H545.8Q545.68 29.49 545.68 28.799999999999997Q545.68 28.08 545.8 27.599999999999998H541.0Q540.88 27.09 540.88 26.4Q540.88 25.68 541.0 25.2H539.8Q539.68 24.689999999999998 539.68 24.0Q539.68 23.28 539.8 22.799999999999997H541.0Q540.88 22.29 540.88 21.6Q540.88 20.88 541.0 20.4H547.6Q547.72 20.88 547.72 21.6Q547.72 22.29 547.6 22.799999999999997H542.2Q542.32 23.28 542.32 24.0Q542.32 24.689999999999998 542.2 25.2H547.0Q547.12 25.68 547.12 26.4Q547.12 27.09 547.0 27.599999999999998H548.2Q548.32 28.08 548.32 28.799999999999997Q548.32 29.49 548.2 30.0Z"/><rect x="562.0" y="15.6" width="13.5" height="16.8" fill="#F778BA"><animate attributeName="opacity" values="1;1;0;0" keyTimes="0;0.5;0.5;1" dur="1.1s" repeatCount="indefinite"/></rect></svg>